<?xml version="1.0" encoding="utf-8"?>
<!-- Generator: Adobe Illustrator 16.0.0, SVG Export Plug-In . SVG Version: 6.00 Build 0)  -->
<!DOCTYPE svg PUBLIC "-//W3C//DTD SVG 1.1//EN" "http://www.w3.org/Graphics/SVG/1.1/DTD/svg11.dtd">
<svg version="1.1" id="Layer_1" xmlns="http://www.w3.org/2000/svg" xmlns:xlink="http://www.w3.org/1999/xlink" x="0px" y="0px"
	 width="150px" height="240px" viewBox="0 0 150 240" enable-background="new 0 0 150 240" xml:space="preserve">
<g id="Layer_1_1_">
	<g>
		<g>
			<path fill="#FFFFFF" d="M54.926,175.85h0.004c0.928,10.008,9.336,17.846,19.586,17.846c10.867,0,19.679-8.811,19.679-19.678
				V64.761h-39.27v107.514c-0.051,0.574-0.089,1.154-0.089,1.742c0,0.586,0.038,1.168,0.089,1.738L54.926,175.85L54.926,175.85z"/>
			<path fill="#FFFFFF" d="M150,56.321L121.416,4.923L91.743,56.321h9.148V167.6c0,21.346-10.061,32.389-26.257,32.389
				c-16.439,0-26.5-11.043-26.5-32.389V81.962H8.876v89.071c0,41.469,26.009,64.043,65.761,64.043
				c39.751,0,65.516-22.574,65.516-63.795V56.321H150L150,56.321z"/>
		</g>
	</g>
</g>
</svg>
